{
  "title": "Suicide Squad 2016 HDTS x264-BiGDADDYVAiN",
  "uid": 15568664,
  "size": 1793172333,
  "categoryP": "video",
  "categoryS": "movies",
  "magnet": "?xt=urn:btih:40e89a6cd57f4033b9f19fc8d88f661f4752b846&amp;dn=Suicide+Squad+2016+HDTS+x264-BiGDADDYVAiN&amp;tr=udp%3A%2F%2Ftracker.leechers-paradise.org%3A6969&amp;tr=udp%3A%2F%2Fzer0day.ch%3A1337&amp;tr=udp%3A%2F%2Fopen.demonii.com%3A1337&amp;tr=udp%3A%2F%2Ftracker.coppersurfer.tk%3A6969&amp;tr=udp%3A%2F%2Fexodus.desync.com%3A6969",
  "seeders": 844,
  "leechers": 244,
  "uploader": "makintos13",
  "files": 4,
  "time": 1471232006,
  "description": "Suicide Squad 2016 HDTS x264-BiGDADDYVAiN\r\n\r\nscreens:\r\n \nhttps://imgmak.com/a5d\r\n \nhttps://imgmak.com/a5s\r\n \nhttps://imgmak.com/a54\r\n \nhttps://imgmak.com/a58\r\n \nhttps://imgmak.com/a5X\r\n\r\nP R E S E N T S . . . . \r\n\r\nSuicide.Squad.2016.HDTS.x264-BiGDADDYVAiN\r\n\r\niMDB........: http://www.imdb.com/title/tt1386697/\r\n\r\n\r\n\r\nT E C H N i C A L . i N F O . . .\r\n\r\nBasic Information\r\nFormat                      : Matroska\r\nFormat version              : Version 4 / Version 2\r\nFile size                   : 1.64 GiB\r\nDuration                    : 1 h 53 min\r\nOverall bit rate mode       : Variable\r\nOverall bit rate            : 2 069 kb/s\r\nEncoded date                : UTC 2016-08-14 19:10:20\r\nWriting application         : mkvmerge v8.3.0 ('Over the Horizon') 64bit\r\nWriting library             : libebml v1.3.1 + libmatroska v1.4.2\r\n\r\nVideo\r\nID                          : 1\r\nFormat                      : AVC\r\nFormat/Info                 : Advanced Video Codec\r\nFormat profile              :   \r\nFormat settings, CABAC      : Yes\r\nFormat settings, ReFrames   : 3 frames\r\nCodec ID                    : V_MPEG4/ISO/AVC\r\nDuration                    : 1 h 53 min\r\nBit rate mode               : Variable\r\nBit rate                    : 1 875 kb/s\r\nMaximum bit rate            : 40.0 Mb/s\r\nWidth                       : 704 pixels\r\nHeight                      : 288 pixels\r\nDisplay aspect ratio        : 2.40:1\r\nFrame rate mode             : Constant\r\nFrame rate                  : 25.000 FPS\r\nColor space                 : YUV\r\nChroma subsampling          : 4:2:0\r\nBit depth                   : 8 bits\r\nScan type                   : Progressive\r\nBits/(Pixel*Frame)          : 0.370\r\nStream size                 : 1.49 GiB (91%)\r\nWriting library             : x264 core 148 r2692 64f4e24\r\nDefault                     : Yes\r\nForced                      : No\r\nColor range                 : Full\r\nColor primaries             : BT.709\r\nTransfer characteristics    : BT.709\r\nMatrix coefficients         : BT.709\r\n\r\nAudio\r\nID                          : 2\r\nFormat                      : MPEG Audio\r\nFormat version              : Version 1\r\nFormat profile              : Layer 3\r\nMode                        : Joint stereo\r\nMode extension              : MS Stereo\r\nCodec ID                    : A_MPEG/L3\r\nCodec ID/Hint               : MP3\r\nDuration                    : 1 h 53 min\r\nBit rate mode               : Constant\r\nBit rate                    : 192 kb/s\r\nChannel(s)                  : 2 channels\r\nSampling rate               : 44.1 kHz\r\nFrame rate                  : 38.281 FPS (1152 spf)\r\nCompression mode            : Lossy\r\nStream size                 : 156 MiB (9%)\r\n\r\n\r\n\r\n\r\nE N C O D E R S . N O T E S . . .  \r\n\r\n       \r\n\r\nSOURCE......: ViDEO...CPG\r\n............: AUDiO...CPG\r\nSAMPLE......: Yippers \r\nADDED NOTE..: well took the cpg release as needed sum poo shining... no offense just a different set of eyes. resized, cropped and chopped added the ol' shiner filters :wink: then took the line audio which lacked life and sprayed it too down with the poo filter... now what we have is a diamond made from the turd... :shit",
  "parsed": {
    "xt": "urn:btih:40e89a6cd57f4033b9f19fc8d88f661f4752b846",
    "dn": "Suicide Squad 2016 HDTS x264-BiGDADDYVAiN",
    "tr": [
      "udp://exodus.desync.com:6969",
      "udp://open.demonii.com:1337",
      "udp://tracker.coppersurfer.tk:6969",
      "udp://tracker.leechers-paradise.org:6969",
      "udp://zer0day.ch:1337"
    ],
    "infoHash": "40e89a6cd57f4033b9f19fc8d88f661f4752b846",
    "infoHashBuffer": {
      "type": "Buffer",
      "data": [
        64,
        232,
        154,
        108,
        213,
        127,
        64,
        51,
        185,
        241,
        159,
        200,
        216,
        143,
        102,
        31,
        71,
        82,
        184,
        70
      ]
    },
    "name": "Suicide Squad 2016 HDTS x264-BiGDADDYVAiN",
    "announce": [
      "udp://exodus.desync.com:6969",
      "udp://open.demonii.com:1337",
      "udp://tracker.coppersurfer.tk:6969",
      "udp://tracker.leechers-paradise.org:6969",
      "udp://zer0day.ch:1337"
    ],
    "urlList": []
  },
  "previous": 1088,
  "peers": 268,
  "last_updated": "2016-12-24T23:12:46.799Z"
}